<svg xmlns="http://www.w3.org/2000/svg" xmlns:xlink="http://www.w3.org/1999/xlink">
<symbol id="close" viewBox="0 0 512.001 512.001">
	<path d="M284.286 256.002L506.143 34.144c7.811-7.811 7.811-20.475 0-28.285-7.811-7.81-20.475-7.811-28.285 0L256 227.717 34.143 5.859c-7.811-7.811-20.475-7.811-28.285 0-7.81 7.811-7.811 20.475 0 28.285l221.857 221.857L5.858 477.859c-7.811 7.811-7.811 20.475 0 28.285a19.938 19.938 0 0014.143 5.857 19.94 19.94 0 0014.143-5.857L256 284.287l221.857 221.857c3.905 3.905 9.024 5.857 14.143 5.857s10.237-1.952 14.143-5.857c7.811-7.811 7.811-20.475 0-28.285L284.286 256.002z"/>
</symbol>
<symbol id="shopping-bag" viewBox="0 0 512 512">
	<path d="M422.957 133.565H372.87V83.478C372.87 37.448 335.421 0 289.391 0h-66.783c-46.03 0-83.478 37.448-83.478 83.478v50.087H89.044c-27.618 0-50.087 22.469-50.087 50.087v278.261c0 27.618 22.469 50.087 50.087 50.087h333.913c27.618 0 50.087-22.469 50.087-50.087V183.652c-.001-27.618-22.47-50.087-50.087-50.087zM172.522 83.478c0-27.618 22.469-50.087 50.087-50.087h66.783c27.618 0 50.087 22.469 50.087 50.087v50.087H172.522V83.478zm267.13 378.435c0 9.206-7.49 16.696-16.696 16.696H89.044c-9.206 0-16.696-7.49-16.696-16.696v-50.087h367.304v50.087zm0-83.478H72.348V183.652c0-9.206 7.49-16.696 16.696-16.696h50.087v27.826c0 9.22 7.475 16.696 16.696 16.696s16.696-7.475 16.696-16.696v-27.826H339.48v27.826c0 9.22 7.475 16.696 16.696 16.696 9.22 0 16.696-7.475 16.696-16.696v-27.826h50.087c9.206 0 16.696 7.49 16.696 16.696v194.783z"/>
</symbol>
</svg>